ISO-10303-21;
HEADER;
/* step.parts distribution metadata
 * Distributed by step.parts: https://www.step.parts/parts/wqfn_16_1ep_3x3mm_p0_5mm_ep1_68x1_68mm
 * Canonical STEP asset: wqfn_16_1ep_3x3mm_p0_5mm_ep1_68x1_68mm.step
 */
/* WQFN-16-1EP_3x3mm_P0.5mm_EP1.68x1.68mm.step 3D STEP model for use in ECAD systems
 * Copyright (C) 2026, KiCAD
 *
 * This work is licensed under the
 * [Creative Commons CC-BY-SA 4.0 License](https://creativecommons.org/licenses/by-sa/4.0/legalcode),
 * with the following exception:
 *
 * To the extent that the creation of electronic designs that use 'Licensed Material' can be
 * considered to be 'Adapted Material', then the copyright holder waives article 3 of the license
 * with respect to these designs and any generated files which use data provided as part of the
 * 'Licensed Material'.
 *
 * You are free to use the library data in your own projects without the obligation to share your
 * project files under this or any other license agreement. However, if you wish to distribute
 * these libraries, or parts thereof (including in modified form) as a collection then the exception
 * above does not apply. Please refer to
 * https://gitlab.com/kicad/libraries/kicad-packages3D/-/blob/master/LICENSE.md for further clarification
 * of the exception.
 *
 * Disclaimer of Warranties and Limitation of Liability.
 * These libraries are provided in the hope that they will be useful, but are provided without warranty of any kind, express or implied.
 * USE 3D CAD DATA AT YOUR OWN RISK
 * DO NOT RELY UPON ANY INFORMATION FOUND HERE WITHOUT INDEPENDENT VERIFICATION.
 */

FILE_DESCRIPTION(
/* description */ ('model of WQFN-16-1EP_3x3mm_P0.5mm_EP1.68x1.68mm'),
/* implementation_level */ '2;1');

FILE_NAME(
/* name */ 'WQFN-16-1EP_3x3mm_P0.5mm_EP1.68x1.68mm.step',
/* time_stamp */ '1970-01-01T00:00:00',
/* author */ ('KiCAD','kicad'),
/* organization */ ('OCCT'),
/* preprocessor_version */ '',
/* originating_system */ 'KiCAD',
/* authorisation */ '');

FILE_SCHEMA(('AUTOMOTIVE_DESIGN { 1 0 10303 214 1 1 1 1 }'));
ENDSEC;

DATA;
#1=APPLICATION_PROTOCOL_DEFINITION('international standard','automotive_design',2000,#2);
#2=APPLICATION_CONTEXT('core data for automotive mechanical design processes');
#3=SHAPE_DEFINITION_REPRESENTATION(#4,#10);
#4=PRODUCT_DEFINITION_SHAPE('','',#5);
#5=PRODUCT_DEFINITION('design','',#6,#9);
#6=PRODUCT_DEFINITION_FORMATION('','',#7);
#7=PRODUCT('WQFN-16-1EP_3x3mm_P0.5mm_EP1.68x1.68mm','WQFN-16-1EP_3x3mm_P0.5mm_EP1.68x1.68mm','',(#8));
#8=PRODUCT_CONTEXT('',#2,'mechanical');
#9=PRODUCT_DEFINITION_CONTEXT('part definition',#2,'design');
#10=ADVANCED_BREP_SHAPE_REPRESENTATION('',(#11,#15),#1049);
#11=AXIS2_PLACEMENT_3D('',#12,#13,#14);
#12=CARTESIAN_POINT('',(0.,0.,0.));
#13=DIRECTION('',(0.,0.,1.));
#14=DIRECTION('',(1.,0.,-0.));
#15=MANIFOLD_SOLID_BREP('',#16);
#16=CLOSED_SHELL('',(#17,#124,#152,#244,#591,#602,#613,#624,#635,#702,#762,#768,#776,#784,#792,#800,#811,#824,#834,#846,#856,#868,#878,#890,#900,#913,#923,#935,#945,#957,#967,#979,#989,#998,#1007,#1016,#1025,#1031,#1037,#1043));
#17=ADVANCED_FACE('',(#18),#121,.F.);
#18=FACE_BOUND('',#19,.F.);
#19=EDGE_LOOP('',(#20,#29,#35,#40,#45,#52,#57,#61,#66,#71,#76,#80,#85,#90,#95,#99,#104,#109,#114,#118));
#20=ORIENTED_EDGE('',*,*,#21,.F.);
#21=EDGE_CURVE('',#22,#24,#26,.T.);
#22=VERTEX_POINT('',#23);
#23=CARTESIAN_POINT('',(-1.5,-1.5,0.8));
#24=VERTEX_POINT('',#25);
#25=CARTESIAN_POINT('',(-1.5,1.5,0.8));
#26=LINE('',#23,#27);
#27=VECTOR('',#28,1.);
#28=DIRECTION('',(0.,1.,0.));
#29=ORIENTED_EDGE('',*,*,#30,.F.);
#30=EDGE_CURVE('',#31,#22,#33,.T.);
#31=VERTEX_POINT('',#32);
#32=CARTESIAN_POINT('',(-1.5,-1.5,0.));
#33=LINE('',#32,#34);
#34=VECTOR('',#13,1.);
#35=ORIENTED_EDGE('',*,*,#36,.T.);
#36=EDGE_CURVE('',#31,#37,#39,.T.);
#37=VERTEX_POINT('',#38);
#38=CARTESIAN_POINT('',(-1.5,-0.87,0.));
#39=LINE('',#32,#27);
#40=ORIENTED_EDGE('',*,*,#41,.T.);
#41=EDGE_CURVE('',#37,#42,#44,.T.);
#42=VERTEX_POINT('',#43);
#43=CARTESIAN_POINT('',(-1.5,-0.87,0.16));
#44=LINE('',#38,#34);
#45=ORIENTED_EDGE('',*,*,#46,.F.);
#46=EDGE_CURVE('',#47,#42,#49,.T.);
#47=VERTEX_POINT('',#48);
#48=CARTESIAN_POINT('',(-1.5,-0.63,0.16));
#49=LINE('',#48,#50);
#50=VECTOR('',#51,1.);
#51=DIRECTION('',(-1.110223024625E-16,-1.,0.));
#52=ORIENTED_EDGE('',*,*,#53,.F.);
#53=EDGE_CURVE('',#54,#47,#56,.T.);
#54=VERTEX_POINT('',#55);
#55=CARTESIAN_POINT('',(-1.5,-0.63,0.));
#56=LINE('',#55,#34);
#57=ORIENTED_EDGE('',*,*,#58,.T.);
#58=EDGE_CURVE('',#54,#59,#39,.T.);
#59=VERTEX_POINT('',#60);
#60=CARTESIAN_POINT('',(-1.5,-0.37,0.));
#61=ORIENTED_EDGE('',*,*,#62,.T.);
#62=EDGE_CURVE('',#59,#63,#65,.T.);
#63=VERTEX_POINT('',#64);
#64=CARTESIAN_POINT('',(-1.5,-0.37,0.16));
#65=LINE('',#60,#34);
#66=ORIENTED_EDGE('',*,*,#67,.F.);
#67=EDGE_CURVE('',#68,#63,#70,.T.);
#68=VERTEX_POINT('',#69);
#69=CARTESIAN_POINT('',(-1.5,-0.13,0.16));
#70=LINE('',#69,#50);
#71=ORIENTED_EDGE('',*,*,#72,.F.);
#72=EDGE_CURVE('',#73,#68,#75,.T.);
#73=VERTEX_POINT('',#74);
#74=CARTESIAN_POINT('',(-1.5,-0.13,0.));
#75=LINE('',#74,#34);
#76=ORIENTED_EDGE('',*,*,#77,.T.);
#77=EDGE_CURVE('',#73,#78,#39,.T.);
#78=VERTEX_POINT('',#79);
#79=CARTESIAN_POINT('',(-1.5,0.13,0.));
#80=ORIENTED_EDGE('',*,*,#81,.T.);
#81=EDGE_CURVE('',#78,#82,#84,.T.);
#82=VERTEX_POINT('',#83);
#83=CARTESIAN_POINT('',(-1.5,0.13,0.16));
#84=LINE('',#79,#34);
#85=ORIENTED_EDGE('',*,*,#86,.F.);
#86=EDGE_CURVE('',#87,#82,#89,.T.);
#87=VERTEX_POINT('',#88);
#88=CARTESIAN_POINT('',(-1.5,0.37,0.16));
#89=LINE('',#88,#50);
#90=ORIENTED_EDGE('',*,*,#91,.F.);
#91=EDGE_CURVE('',#92,#87,#94,.T.);
#92=VERTEX_POINT('',#93);
#93=CARTESIAN_POINT('',(-1.5,0.37,0.));
#94=LINE('',#93,#34);
#95=ORIENTED_EDGE('',*,*,#96,.T.);
#96=EDGE_CURVE('',#92,#97,#39,.T.);
#97=VERTEX_POINT('',#98);
#98=CARTESIAN_POINT('',(-1.5,0.63,0.));
#99=ORIENTED_EDGE('',*,*,#100,.T.);
#100=EDGE_CURVE('',#97,#101,#103,.T.);
#101=VERTEX_POINT('',#102);
#102=CARTESIAN_POINT('',(-1.5,0.63,0.16));
#103=LINE('',#98,#34);
#104=ORIENTED_EDGE('',*,*,#105,.F.);
#105=EDGE_CURVE('',#106,#101,#108,.T.);
#106=VERTEX_POINT('',#107);
#107=CARTESIAN_POINT('',(-1.5,0.87,0.16));
#108=LINE('',#107,#50);
#109=ORIENTED_EDGE('',*,*,#110,.F.);
#110=EDGE_CURVE('',#111,#106,#113,.T.);
#111=VERTEX_POINT('',#112);
#112=CARTESIAN_POINT('',(-1.5,0.87,0.));
#113=LINE('',#112,#34);
#114=ORIENTED_EDGE('',*,*,#115,.T.);
#115=EDGE_CURVE('',#111,#116,#39,.T.);
#116=VERTEX_POINT('',#117);
#117=CARTESIAN_POINT('',(-1.5,1.5,0.));
#118=ORIENTED_EDGE('',*,*,#119,.T.);
#119=EDGE_CURVE('',#116,#24,#120,.T.);
#120=LINE('',#117,#34);
#121=PLANE('',#122);
#122=AXIS2_PLACEMENT_3D('',#32,#123,#13);
#123=DIRECTION('',(1.,0.,0.));
#124=ADVANCED_FACE('',(#125,#141),#150,.T.);
#125=FACE_BOUND('',#126,.T.);
#126=EDGE_LOOP('',(#20,#127,#133,#138));
#127=ORIENTED_EDGE('',*,*,#128,.T.);
#128=EDGE_CURVE('',#22,#129,#131,.T.);
#129=VERTEX_POINT('',#130);
#130=CARTESIAN_POINT('',(1.5,-1.5,0.8));
#131=LINE('',#23,#132);
#132=VECTOR('',#123,1.);
#133=ORIENTED_EDGE('',*,*,#134,.T.);
#134=EDGE_CURVE('',#129,#135,#137,.T.);
#135=VERTEX_POINT('',#136);
#136=CARTESIAN_POINT('',(1.5,1.5,0.8));
#137=LINE('',#130,#27);
#138=ORIENTED_EDGE('',*,*,#139,.F.);
#139=EDGE_CURVE('',#24,#135,#140,.T.);
#140=LINE('',#25,#132);
#141=FACE_BOUND('',#142,.T.);
#142=EDGE_LOOP('',(#143));
#143=ORIENTED_EDGE('',*,*,#144,.F.);
#144=EDGE_CURVE('',#145,#145,#147,.T.);
#145=VERTEX_POINT('',#146);
#146=CARTESIAN_POINT('',(-1.05,1.2,0.8));
#147=CIRCLE('',#148,0.15);
#148=AXIS2_PLACEMENT_3D('',#149,#13,#123);
#149=CARTESIAN_POINT('',(-1.2,1.2,0.8));
#150=PLANE('',#151);
#151=AXIS2_PLACEMENT_3D('',#23,#13,#123);
#152=ADVANCED_FACE('',(#153),#242,.T.);
#153=FACE_BOUND('',#154,.T.);
#154=EDGE_LOOP('',(#155,#118,#160,#161,#166,#170,#175,#182,#187,#191,#196,#201,#206,#210,#215,#220,#225,#229,#234,#239));
#155=ORIENTED_EDGE('',*,*,#156,.F.);
#156=EDGE_CURVE('',#116,#157,#159,.T.);
#157=VERTEX_POINT('',#158);
#158=CARTESIAN_POINT('',(-0.87,1.5,0.));
#159=LINE('',#117,#132);
#160=ORIENTED_EDGE('',*,*,#139,.T.);
#161=ORIENTED_EDGE('',*,*,#162,.F.);
#162=EDGE_CURVE('',#163,#135,#165,.T.);
#163=VERTEX_POINT('',#164);
#164=CARTESIAN_POINT('',(1.5,1.5,0.));
#165=LINE('',#164,#34);
#166=ORIENTED_EDGE('',*,*,#167,.F.);
#167=EDGE_CURVE('',#168,#163,#159,.T.);
#168=VERTEX_POINT('',#169);
#169=CARTESIAN_POINT('',(0.87,1.5,0.));
#170=ORIENTED_EDGE('',*,*,#171,.T.);
#171=EDGE_CURVE('',#168,#172,#174,.T.);
#172=VERTEX_POINT('',#173);
#173=CARTESIAN_POINT('',(0.87,1.5,0.16));
#174=LINE('',#169,#34);
#175=ORIENTED_EDGE('',*,*,#176,.T.);
#176=EDGE_CURVE('',#172,#177,#179,.T.);
#177=VERTEX_POINT('',#178);
#178=CARTESIAN_POINT('',(0.63,1.5,0.16));
#179=LINE('',#173,#180);
#180=VECTOR('',#181,1.);
#181=DIRECTION('',(-1.,0.,0.));
#182=ORIENTED_EDGE('',*,*,#183,.F.);
#183=EDGE_CURVE('',#184,#177,#186,.T.);
#184=VERTEX_POINT('',#185);
#185=CARTESIAN_POINT('',(0.63,1.5,0.));
#186=LINE('',#185,#34);
#187=ORIENTED_EDGE('',*,*,#188,.F.);
#188=EDGE_CURVE('',#189,#184,#159,.T.);
#189=VERTEX_POINT('',#190);
#190=CARTESIAN_POINT('',(0.37,1.5,0.));
#191=ORIENTED_EDGE('',*,*,#192,.T.);
#192=EDGE_CURVE('',#189,#193,#195,.T.);
#193=VERTEX_POINT('',#194);
#194=CARTESIAN_POINT('',(0.37,1.5,0.16));
#195=LINE('',#190,#34);
#196=ORIENTED_EDGE('',*,*,#197,.T.);
#197=EDGE_CURVE('',#193,#198,#200,.T.);
#198=VERTEX_POINT('',#199);
#199=CARTESIAN_POINT('',(0.13,1.5,0.16));
#200=LINE('',#194,#180);
#201=ORIENTED_EDGE('',*,*,#202,.F.);
#202=EDGE_CURVE('',#203,#198,#205,.T.);
#203=VERTEX_POINT('',#204);
#204=CARTESIAN_POINT('',(0.13,1.5,0.));
#205=LINE('',#204,#34);
#206=ORIENTED_EDGE('',*,*,#207,.F.);
#207=EDGE_CURVE('',#208,#203,#159,.T.);
#208=VERTEX_POINT('',#209);
#209=CARTESIAN_POINT('',(-0.13,1.5,0.));
#210=ORIENTED_EDGE('',*,*,#211,.T.);
#211=EDGE_CURVE('',#208,#212,#214,.T.);
#212=VERTEX_POINT('',#213);
#213=CARTESIAN_POINT('',(-0.13,1.5,0.16));
#214=LINE('',#209,#34);
#215=ORIENTED_EDGE('',*,*,#216,.T.);
#216=EDGE_CURVE('',#212,#217,#219,.T.);
#217=VERTEX_POINT('',#218);
#218=CARTESIAN_POINT('',(-0.37,1.5,0.16));
#219=LINE('',#213,#180);
#220=ORIENTED_EDGE('',*,*,#221,.F.);
#221=EDGE_CURVE('',#222,#217,#224,.T.);
#222=VERTEX_POINT('',#223);
#223=CARTESIAN_POINT('',(-0.37,1.5,0.));
#224=LINE('',#223,#34);
#225=ORIENTED_EDGE('',*,*,#226,.F.);
#226=EDGE_CURVE('',#227,#222,#159,.T.);
#227=VERTEX_POINT('',#228);
#228=CARTESIAN_POINT('',(-0.63,1.5,0.));
#229=ORIENTED_EDGE('',*,*,#230,.T.);
#230=EDGE_CURVE('',#227,#231,#233,.T.);
#231=VERTEX_POINT('',#232);
#232=CARTESIAN_POINT('',(-0.63,1.5,0.16));
#233=LINE('',#228,#34);
#234=ORIENTED_EDGE('',*,*,#235,.T.);
#235=EDGE_CURVE('',#231,#236,#238,.T.);
#236=VERTEX_POINT('',#237);
#237=CARTESIAN_POINT('',(-0.87,1.5,0.16));
#238=LINE('',#232,#180);
#239=ORIENTED_EDGE('',*,*,#240,.F.);
#240=EDGE_CURVE('',#157,#236,#241,.T.);
#241=LINE('',#158,#34);
#242=PLANE('',#243);
#243=AXIS2_PLACEMENT_3D('',#117,#28,#13);
#244=ADVANCED_FACE('',(#245,#567),#589,.F.);
#245=FACE_BOUND('',#246,.F.);
#246=EDGE_LOOP('',(#247,#248,#253,#260,#269,#276,#280,#285,#292,#297,#301,#306,#313,#318,#322,#327,#334,#339,#343,#348,#355,#364,#371,#375,#380,#387,#392,#396,#401,#408,#413,#417,#422,#429,#434,#166,#436,#441,#449,#187,#454,#459,#466,#206,#469,#474,#481,#225,#484,#489,#496,#155,#499,#500,#507,#514,#519,#520,#525,#532,#535,#536,#541,#548,#551,#552,#557,#564));
#247=ORIENTED_EDGE('',*,*,#36,.F.);
#248=ORIENTED_EDGE('',*,*,#249,.T.);
#249=EDGE_CURVE('',#31,#250,#252,.T.);
#250=VERTEX_POINT('',#251);
#251=CARTESIAN_POINT('',(-0.87,-1.5,0.));
#252=LINE('',#32,#132);
#253=ORIENTED_EDGE('',*,*,#254,.F.);
#254=EDGE_CURVE('',#255,#250,#257,.T.);
#255=VERTEX_POINT('',#256);
#256=CARTESIAN_POINT('',(-0.87,-1.22,0.));
#257=LINE('',#256,#258);
#258=VECTOR('',#259,1.);
#259=DIRECTION('',(-1.224646799147E-16,-1.,0.));
#260=ORIENTED_EDGE('',*,*,#261,.F.);
#261=EDGE_CURVE('',#262,#255,#264,.T.);
#262=VERTEX_POINT('',#263);
#263=CARTESIAN_POINT('',(-0.63,-1.22,0.));
#264=CIRCLE('',#265,0.12);
#265=AXIS2_PLACEMENT_3D('',#266,#267,#268);
#266=CARTESIAN_POINT('',(-0.75,-1.22,0.));
#267=DIRECTION('',(-0.,0.,1.));
#268=DIRECTION('',(1.,-1.224646799147E-16,0.));
#269=ORIENTED_EDGE('',*,*,#270,.F.);
#270=EDGE_CURVE('',#271,#262,#273,.T.);
#271=VERTEX_POINT('',#272);
#272=CARTESIAN_POINT('',(-0.63,-1.5,0.));
#273=LINE('',#272,#274);
#274=VECTOR('',#275,1.);
#275=DIRECTION('',(1.224646799147E-16,1.,0.));
#276=ORIENTED_EDGE('',*,*,#277,.T.);
#277=EDGE_CURVE('',#271,#278,#252,.T.);
#278=VERTEX_POINT('',#279);
#279=CARTESIAN_POINT('',(-0.37,-1.5,0.));
#280=ORIENTED_EDGE('',*,*,#281,.F.);
#281=EDGE_CURVE('',#282,#278,#284,.T.);
#282=VERTEX_POINT('',#283);
#283=CARTESIAN_POINT('',(-0.37,-1.22,0.));
#284=LINE('',#283,#258);
#285=ORIENTED_EDGE('',*,*,#286,.F.);
#286=EDGE_CURVE('',#287,#282,#289,.T.);
#287=VERTEX_POINT('',#288);
#288=CARTESIAN_POINT('',(-0.13,-1.22,0.));
#289=CIRCLE('',#290,0.12);
#290=AXIS2_PLACEMENT_3D('',#291,#267,#268);
#291=CARTESIAN_POINT('',(-0.25,-1.22,0.));
#292=ORIENTED_EDGE('',*,*,#293,.F.);
#293=EDGE_CURVE('',#294,#287,#296,.T.);
#294=VERTEX_POINT('',#295);
#295=CARTESIAN_POINT('',(-0.13,-1.5,0.));
#296=LINE('',#295,#274);
#297=ORIENTED_EDGE('',*,*,#298,.T.);
#298=EDGE_CURVE('',#294,#299,#252,.T.);
#299=VERTEX_POINT('',#300);
#300=CARTESIAN_POINT('',(0.13,-1.5,0.));
#301=ORIENTED_EDGE('',*,*,#302,.F.);
#302=EDGE_CURVE('',#303,#299,#305,.T.);
#303=VERTEX_POINT('',#304);
#304=CARTESIAN_POINT('',(0.13,-1.22,0.));
#305=LINE('',#304,#258);
#306=ORIENTED_EDGE('',*,*,#307,.F.);
#307=EDGE_CURVE('',#308,#303,#310,.T.);
#308=VERTEX_POINT('',#309);
#309=CARTESIAN_POINT('',(0.37,-1.22,0.));
#310=CIRCLE('',#311,0.12);
#311=AXIS2_PLACEMENT_3D('',#312,#267,#268);
#312=CARTESIAN_POINT('',(0.25,-1.22,0.));
#313=ORIENTED_EDGE('',*,*,#314,.F.);
#314=EDGE_CURVE('',#315,#308,#317,.T.);
#315=VERTEX_POINT('',#316);
#316=CARTESIAN_POINT('',(0.37,-1.5,0.));
#317=LINE('',#316,#274);
#318=ORIENTED_EDGE('',*,*,#319,.T.);
#319=EDGE_CURVE('',#315,#320,#252,.T.);
#320=VERTEX_POINT('',#321);
#321=CARTESIAN_POINT('',(0.63,-1.5,0.));
#322=ORIENTED_EDGE('',*,*,#323,.F.);
#323=EDGE_CURVE('',#324,#320,#326,.T.);
#324=VERTEX_POINT('',#325);
#325=CARTESIAN_POINT('',(0.63,-1.22,0.));
#326=LINE('',#325,#258);
#327=ORIENTED_EDGE('',*,*,#328,.F.);
#328=EDGE_CURVE('',#329,#324,#331,.T.);
#329=VERTEX_POINT('',#330);
#330=CARTESIAN_POINT('',(0.87,-1.22,0.));
#331=CIRCLE('',#332,0.12);
#332=AXIS2_PLACEMENT_3D('',#333,#267,#268);
#333=CARTESIAN_POINT('',(0.75,-1.22,0.));
#334=ORIENTED_EDGE('',*,*,#335,.F.);
#335=EDGE_CURVE('',#336,#329,#338,.T.);
#336=VERTEX_POINT('',#337);
#337=CARTESIAN_POINT('',(0.87,-1.5,0.));
#338=LINE('',#337,#274);
#339=ORIENTED_EDGE('',*,*,#340,.T.);
#340=EDGE_CURVE('',#336,#341,#252,.T.);
#341=VERTEX_POINT('',#342);
#342=CARTESIAN_POINT('',(1.5,-1.5,0.));
#343=ORIENTED_EDGE('',*,*,#344,.T.);
#344=EDGE_CURVE('',#341,#345,#347,.T.);
#345=VERTEX_POINT('',#346);
#346=CARTESIAN_POINT('',(1.5,-0.87,0.));
#347=LINE('',#342,#27);
#348=ORIENTED_EDGE('',*,*,#349,.F.);
#349=EDGE_CURVE('',#350,#345,#352,.T.);
#350=VERTEX_POINT('',#351);
#351=CARTESIAN_POINT('',(1.22,-0.87,0.));
#352=LINE('',#351,#353);
#353=VECTOR('',#354,1.);
#354=DIRECTION('',(1.,-2.22044604925E-16,0.));
#355=ORIENTED_EDGE('',*,*,#356,.F.);
#356=EDGE_CURVE('',#357,#350,#359,.T.);
#357=VERTEX_POINT('',#358);
#358=CARTESIAN_POINT('',(1.22,-0.63,0.));
#359=CIRCLE('',#360,0.12);
#360=AXIS2_PLACEMENT_3D('',#361,#362,#363);
#361=CARTESIAN_POINT('',(1.22,-0.75,0.));
#362=DIRECTION('',(0.,-0.,1.));
#363=DIRECTION('',(2.22044604925E-16,1.,0.));
#364=ORIENTED_EDGE('',*,*,#365,.F.);
#365=EDGE_CURVE('',#366,#357,#368,.T.);
#366=VERTEX_POINT('',#367);
#367=CARTESIAN_POINT('',(1.5,-0.63,0.));
#368=LINE('',#367,#369);
#369=VECTOR('',#370,1.);
#370=DIRECTION('',(-1.,2.22044604925E-16,0.));
#371=ORIENTED_EDGE('',*,*,#372,.T.);
#372=EDGE_CURVE('',#366,#373,#347,.T.);
#373=VERTEX_POINT('',#374);
#374=CARTESIAN_POINT('',(1.5,-0.37,0.));
#375=ORIENTED_EDGE('',*,*,#376,.F.);
#376=EDGE_CURVE('',#377,#373,#379,.T.);
#377=VERTEX_POINT('',#378);
#378=CARTESIAN_POINT('',(1.22,-0.37,0.));
#379=LINE('',#378,#353);
#380=ORIENTED_EDGE('',*,*,#381,.F.);
#381=EDGE_CURVE('',#382,#377,#384,.T.);
#382=VERTEX_POINT('',#383);
#383=CARTESIAN_POINT('',(1.22,-0.13,0.));
#384=CIRCLE('',#385,0.12);
#385=AXIS2_PLACEMENT_3D('',#386,#362,#363);
#386=CARTESIAN_POINT('',(1.22,-0.25,0.));
#387=ORIENTED_EDGE('',*,*,#388,.F.);
#388=EDGE_CURVE('',#389,#382,#391,.T.);
#389=VERTEX_POINT('',#390);
#390=CARTESIAN_POINT('',(1.5,-0.13,0.));
#391=LINE('',#390,#369);
#392=ORIENTED_EDGE('',*,*,#393,.T.);
#393=EDGE_CURVE('',#389,#394,#347,.T.);
#394=VERTEX_POINT('',#395);
#395=CARTESIAN_POINT('',(1.5,0.13,0.));
#396=ORIENTED_EDGE('',*,*,#397,.F.);
#397=EDGE_CURVE('',#398,#394,#400,.T.);
#398=VERTEX_POINT('',#399);
#399=CARTESIAN_POINT('',(1.22,0.13,0.));
#400=LINE('',#399,#353);
#401=ORIENTED_EDGE('',*,*,#402,.F.);
#402=EDGE_CURVE('',#403,#398,#405,.T.);
#403=VERTEX_POINT('',#404);
#404=CARTESIAN_POINT('',(1.22,0.37,0.));
#405=CIRCLE('',#406,0.12);
#406=AXIS2_PLACEMENT_3D('',#407,#362,#363);
#407=CARTESIAN_POINT('',(1.22,0.25,0.));
#408=ORIENTED_EDGE('',*,*,#409,.F.);
#409=EDGE_CURVE('',#410,#403,#412,.T.);
#410=VERTEX_POINT('',#411);
#411=CARTESIAN_POINT('',(1.5,0.37,0.));
#412=LINE('',#411,#369);
#413=ORIENTED_EDGE('',*,*,#414,.T.);
#414=EDGE_CURVE('',#410,#415,#347,.T.);
#415=VERTEX_POINT('',#416);
#416=CARTESIAN_POINT('',(1.5,0.63,0.));
#417=ORIENTED_EDGE('',*,*,#418,.F.);
#418=EDGE_CURVE('',#419,#415,#421,.T.);
#419=VERTEX_POINT('',#420);
#420=CARTESIAN_POINT('',(1.22,0.63,0.));
#421=LINE('',#420,#353);
#422=ORIENTED_EDGE('',*,*,#423,.F.);
#423=EDGE_CURVE('',#424,#419,#426,.T.);
#424=VERTEX_POINT('',#425);
#425=CARTESIAN_POINT('',(1.22,0.87,0.));
#426=CIRCLE('',#427,0.12);
#427=AXIS2_PLACEMENT_3D('',#428,#362,#363);
#428=CARTESIAN_POINT('',(1.22,0.75,0.));
#429=ORIENTED_EDGE('',*,*,#430,.F.);
#430=EDGE_CURVE('',#431,#424,#433,.T.);
#431=VERTEX_POINT('',#432);
#432=CARTESIAN_POINT('',(1.5,0.87,0.));
#433=LINE('',#432,#369);
#434=ORIENTED_EDGE('',*,*,#435,.T.);
#435=EDGE_CURVE('',#431,#163,#347,.T.);
#436=ORIENTED_EDGE('',*,*,#437,.F.);
#437=EDGE_CURVE('',#438,#168,#440,.T.);
#438=VERTEX_POINT('',#439);
#439=CARTESIAN_POINT('',(0.87,1.22,0.));
#440=LINE('',#439,#27);
#441=ORIENTED_EDGE('',*,*,#442,.F.);
#442=EDGE_CURVE('',#443,#438,#445,.T.);
#443=VERTEX_POINT('',#444);
#444=CARTESIAN_POINT('',(0.63,1.22,0.));
#445=CIRCLE('',#446,0.12);
#446=AXIS2_PLACEMENT_3D('',#447,#13,#448);
#447=CARTESIAN_POINT('',(0.75,1.22,0.));
#448=DIRECTION('',(-1.,0.,-0.));
#449=ORIENTED_EDGE('',*,*,#450,.F.);
#450=EDGE_CURVE('',#184,#443,#451,.T.);
#451=LINE('',#185,#452);
#452=VECTOR('',#453,1.);
#453=DIRECTION('',(0.,-1.,0.));
#454=ORIENTED_EDGE('',*,*,#455,.F.);
#455=EDGE_CURVE('',#456,#189,#458,.T.);
#456=VERTEX_POINT('',#457);
#457=CARTESIAN_POINT('',(0.37,1.22,0.));
#458=LINE('',#457,#27);
#459=ORIENTED_EDGE('',*,*,#460,.F.);
#460=EDGE_CURVE('',#461,#456,#463,.T.);
#461=VERTEX_POINT('',#462);
#462=CARTESIAN_POINT('',(0.13,1.22,0.));
#463=CIRCLE('',#464,0.12);
#464=AXIS2_PLACEMENT_3D('',#465,#13,#448);
#465=CARTESIAN_POINT('',(0.25,1.22,0.));
#466=ORIENTED_EDGE('',*,*,#467,.F.);
#467=EDGE_CURVE('',#203,#461,#468,.T.);
#468=LINE('',#204,#452);
#469=ORIENTED_EDGE('',*,*,#470,.F.);
#470=EDGE_CURVE('',#471,#208,#473,.T.);
#471=VERTEX_POINT('',#472);
#472=CARTESIAN_POINT('',(-0.13,1.22,0.));
#473=LINE('',#472,#27);
#474=ORIENTED_EDGE('',*,*,#475,.F.);
#475=EDGE_CURVE('',#476,#471,#478,.T.);
#476=VERTEX_POINT('',#477);
#477=CARTESIAN_POINT('',(-0.37,1.22,0.));
#478=CIRCLE('',#479,0.12);
#479=AXIS2_PLACEMENT_3D('',#480,#13,#448);
#480=CARTESIAN_POINT('',(-0.25,1.22,0.));
#481=ORIENTED_EDGE('',*,*,#482,.F.);
#482=EDGE_CURVE('',#222,#476,#483,.T.);
#483=LINE('',#223,#452);
#484=ORIENTED_EDGE('',*,*,#485,.F.);
#485=EDGE_CURVE('',#486,#227,#488,.T.);
#486=VERTEX_POINT('',#487);
#487=CARTESIAN_POINT('',(-0.63,1.22,0.));
#488=LINE('',#487,#27);
#489=ORIENTED_EDGE('',*,*,#490,.F.);
#490=EDGE_CURVE('',#491,#486,#493,.T.);
#491=VERTEX_POINT('',#492);
#492=CARTESIAN_POINT('',(-0.87,1.22,0.));
#493=CIRCLE('',#494,0.12);
#494=AXIS2_PLACEMENT_3D('',#495,#13,#448);
#495=CARTESIAN_POINT('',(-0.75,1.22,0.));
#496=ORIENTED_EDGE('',*,*,#497,.F.);
#497=EDGE_CURVE('',#157,#491,#498,.T.);
#498=LINE('',#158,#452);
#499=ORIENTED_EDGE('',*,*,#115,.F.);
#500=ORIENTED_EDGE('',*,*,#501,.F.);
#501=EDGE_CURVE('',#502,#111,#504,.T.);
#502=VERTEX_POINT('',#503);
#503=CARTESIAN_POINT('',(-1.22,0.87,0.));
#504=LINE('',#503,#505);
#505=VECTOR('',#506,1.);
#506=DIRECTION('',(-1.,1.110223024625E-16,0.));
#507=ORIENTED_EDGE('',*,*,#508,.F.);
#508=EDGE_CURVE('',#509,#502,#511,.T.);
#509=VERTEX_POINT('',#510);
#510=CARTESIAN_POINT('',(-1.22,0.63,0.));
#511=CIRCLE('',#512,0.12);
#512=AXIS2_PLACEMENT_3D('',#513,#13,#51);
#513=CARTESIAN_POINT('',(-1.22,0.75,0.));
#514=ORIENTED_EDGE('',*,*,#515,.F.);
#515=EDGE_CURVE('',#97,#509,#516,.T.);
#516=LINE('',#98,#517);
#517=VECTOR('',#518,1.);
#518=DIRECTION('',(1.,-1.110223024625E-16,0.));
#519=ORIENTED_EDGE('',*,*,#96,.F.);
#520=ORIENTED_EDGE('',*,*,#521,.F.);
#521=EDGE_CURVE('',#522,#92,#524,.T.);
#522=VERTEX_POINT('',#523);
#523=CARTESIAN_POINT('',(-1.22,0.37,0.));
#524=LINE('',#523,#505);
#525=ORIENTED_EDGE('',*,*,#526,.F.);
#526=EDGE_CURVE('',#527,#522,#529,.T.);
#527=VERTEX_POINT('',#528);
#528=CARTESIAN_POINT('',(-1.22,0.13,0.));
#529=CIRCLE('',#530,0.12);
#530=AXIS2_PLACEMENT_3D('',#531,#13,#51);
#531=CARTESIAN_POINT('',(-1.22,0.25,0.));
#532=ORIENTED_EDGE('',*,*,#533,.F.);
#533=EDGE_CURVE('',#78,#527,#534,.T.);
#534=LINE('',#79,#517);
#535=ORIENTED_EDGE('',*,*,#77,.F.);
#536=ORIENTED_EDGE('',*,*,#537,.F.);
#537=EDGE_CURVE('',#538,#73,#540,.T.);
#538=VERTEX_POINT('',#539);
#539=CARTESIAN_POINT('',(-1.22,-0.13,0.));
#540=LINE('',#539,#505);
#541=ORIENTED_EDGE('',*,*,#542,.F.);
#542=EDGE_CURVE('',#543,#538,#545,.T.);
#543=VERTEX_POINT('',#544);
#544=CARTESIAN_POINT('',(-1.22,-0.37,0.));
#545=CIRCLE('',#546,0.12);
#546=AXIS2_PLACEMENT_3D('',#547,#13,#51);
#547=CARTESIAN_POINT('',(-1.22,-0.25,0.));
#548=ORIENTED_EDGE('',*,*,#549,.F.);
#549=EDGE_CURVE('',#59,#543,#550,.T.);
#550=LINE('',#60,#517);
#551=ORIENTED_EDGE('',*,*,#58,.F.);
#552=ORIENTED_EDGE('',*,*,#553,.F.);
#553=EDGE_CURVE('',#554,#54,#556,.T.);
#554=VERTEX_POINT('',#555);
#555=CARTESIAN_POINT('',(-1.22,-0.63,0.));
#556=LINE('',#555,#505);
#557=ORIENTED_EDGE('',*,*,#558,.F.);
#558=EDGE_CURVE('',#559,#554,#561,.T.);
#559=VERTEX_POINT('',#560);
#560=CARTESIAN_POINT('',(-1.22,-0.87,0.));
#561=CIRCLE('',#562,0.12);
#562=AXIS2_PLACEMENT_3D('',#563,#13,#51);
#563=CARTESIAN_POINT('',(-1.22,-0.75,0.));
#564=ORIENTED_EDGE('',*,*,#565,.F.);
#565=EDGE_CURVE('',#37,#559,#566,.T.);
#566=LINE('',#38,#517);
#567=FACE_BOUND('',#568,.F.);
#568=EDGE_LOOP('',(#569,#576,#581,#586));
#569=ORIENTED_EDGE('',*,*,#570,.F.);
#570=EDGE_CURVE('',#571,#573,#575,.T.);
#571=VERTEX_POINT('',#572);
#572=CARTESIAN_POINT('',(-0.84,-0.84,0.));
#573=VERTEX_POINT('',#574);
#574=CARTESIAN_POINT('',(0.84,-0.84,0.));
#575=LINE('',#572,#132);
#576=ORIENTED_EDGE('',*,*,#577,.F.);
#577=EDGE_CURVE('',#578,#571,#580,.T.);
#578=VERTEX_POINT('',#579);
#579=CARTESIAN_POINT('',(-0.84,0.84,0.));
#580=LINE('',#579,#452);
#581=ORIENTED_EDGE('',*,*,#582,.F.);
#582=EDGE_CURVE('',#583,#578,#585,.T.);
#583=VERTEX_POINT('',#584);
#584=CARTESIAN_POINT('',(0.84,0.84,0.));
#585=LINE('',#584,#180);
#586=ORIENTED_EDGE('',*,*,#587,.F.);
#587=EDGE_CURVE('',#573,#583,#588,.T.);
#588=LINE('',#574,#27);
#589=PLANE('',#590);
#590=AXIS2_PLACEMENT_3D('',#32,#13,#123);
#591=ADVANCED_FACE('',(#592),#600,.F.);
#592=FACE_BOUND('',#593,.F.);
#593=EDGE_LOOP('',(#594,#595,#596,#597));
#594=ORIENTED_EDGE('',*,*,#110,.T.);
#595=ORIENTED_EDGE('',*,*,#105,.T.);
#596=ORIENTED_EDGE('',*,*,#100,.F.);
#597=ORIENTED_EDGE('',*,*,#598,.F.);
#598=EDGE_CURVE('',#111,#97,#599,.T.);
#599=LINE('',#112,#50);
#600=PLANE('',#601);
#601=AXIS2_PLACEMENT_3D('',#112,#518,#51);
#602=ADVANCED_FACE('',(#603),#611,.F.);
#603=FACE_BOUND('',#604,.F.);
#604=EDGE_LOOP('',(#605,#606,#607,#608));
#605=ORIENTED_EDGE('',*,*,#91,.T.);
#606=ORIENTED_EDGE('',*,*,#86,.T.);
#607=ORIENTED_EDGE('',*,*,#81,.F.);
#608=ORIENTED_EDGE('',*,*,#609,.F.);
#609=EDGE_CURVE('',#92,#78,#610,.T.);
#610=LINE('',#93,#50);
#611=PLANE('',#612);
#612=AXIS2_PLACEMENT_3D('',#93,#518,#51);
#613=ADVANCED_FACE('',(#614),#622,.F.);
#614=FACE_BOUND('',#615,.F.);
#615=EDGE_LOOP('',(#616,#617,#618,#619));
#616=ORIENTED_EDGE('',*,*,#72,.T.);
#617=ORIENTED_EDGE('',*,*,#67,.T.);
#618=ORIENTED_EDGE('',*,*,#62,.F.);
#619=ORIENTED_EDGE('',*,*,#620,.F.);
#620=EDGE_CURVE('',#73,#59,#621,.T.);
#621=LINE('',#74,#50);
#622=PLANE('',#623);
#623=AXIS2_PLACEMENT_3D('',#74,#518,#51);
#624=ADVANCED_FACE('',(#625),#633,.F.);
#625=FACE_BOUND('',#626,.F.);
#626=EDGE_LOOP('',(#627,#628,#629,#630));
#627=ORIENTED_EDGE('',*,*,#53,.T.);
#628=ORIENTED_EDGE('',*,*,#46,.T.);
#629=ORIENTED_EDGE('',*,*,#41,.F.);
#630=ORIENTED_EDGE('',*,*,#631,.F.);
#631=EDGE_CURVE('',#54,#37,#632,.T.);
#632=LINE('',#55,#50);
#633=PLANE('',#634);
#634=AXIS2_PLACEMENT_3D('',#55,#518,#51);
#635=ADVANCED_FACE('',(#636),#700,.F.);
#636=FACE_BOUND('',#637,.F.);
#637=EDGE_LOOP('',(#638,#639,#127,#640,#643,#644,#649,#655,#658,#659,#664,#669,#672,#673,#678,#683,#686,#687,#692,#697));
#638=ORIENTED_EDGE('',*,*,#249,.F.);
#639=ORIENTED_EDGE('',*,*,#30,.T.);
#640=ORIENTED_EDGE('',*,*,#641,.F.);
#641=EDGE_CURVE('',#341,#129,#642,.T.);
#642=LINE('',#342,#34);
#643=ORIENTED_EDGE('',*,*,#340,.F.);
#644=ORIENTED_EDGE('',*,*,#645,.T.);
#645=EDGE_CURVE('',#336,#646,#648,.T.);
#646=VERTEX_POINT('',#647);
#647=CARTESIAN_POINT('',(0.87,-1.5,0.16));
#648=LINE('',#337,#34);
#649=ORIENTED_EDGE('',*,*,#650,.F.);
#650=EDGE_CURVE('',#651,#646,#653,.T.);
#651=VERTEX_POINT('',#652);
#652=CARTESIAN_POINT('',(0.63,-1.5,0.16));
#653=LINE('',#652,#654);
#654=VECTOR('',#268,1.);
#655=ORIENTED_EDGE('',*,*,#656,.F.);
#656=EDGE_CURVE('',#320,#651,#657,.T.);
#657=LINE('',#321,#34);
#658=ORIENTED_EDGE('',*,*,#319,.F.);
#659=ORIENTED_EDGE('',*,*,#660,.T.);
#660=EDGE_CURVE('',#315,#661,#663,.T.);
#661=VERTEX_POINT('',#662);
#662=CARTESIAN_POINT('',(0.37,-1.5,0.16));
#663=LINE('',#316,#34);
#664=ORIENTED_EDGE('',*,*,#665,.F.);
#665=EDGE_CURVE('',#666,#661,#668,.T.);
#666=VERTEX_POINT('',#667);
#667=CARTESIAN_POINT('',(0.13,-1.5,0.16));
#668=LINE('',#667,#654);
#669=ORIENTED_EDGE('',*,*,#670,.F.);
#670=EDGE_CURVE('',#299,#666,#671,.T.);
#671=LINE('',#300,#34);
#672=ORIENTED_EDGE('',*,*,#298,.F.);
#673=ORIENTED_EDGE('',*,*,#674,.T.);
#674=EDGE_CURVE('',#294,#675,#677,.T.);
#675=VERTEX_POINT('',#676);
#676=CARTESIAN_POINT('',(-0.13,-1.5,0.16));
#677=LINE('',#295,#34);
#678=ORIENTED_EDGE('',*,*,#679,.F.);
#679=EDGE_CURVE('',#680,#675,#682,.T.);
#680=VERTEX_POINT('',#681);
#681=CARTESIAN_POINT('',(-0.37,-1.5,0.16));
#682=LINE('',#681,#654);
#683=ORIENTED_EDGE('',*,*,#684,.F.);
#684=EDGE_CURVE('',#278,#680,#685,.T.);
#685=LINE('',#279,#34);
#686=ORIENTED_EDGE('',*,*,#277,.F.);
#687=ORIENTED_EDGE('',*,*,#688,.T.);
#688=EDGE_CURVE('',#271,#689,#691,.T.);
#689=VERTEX_POINT('',#690);
#690=CARTESIAN_POINT('',(-0.63,-1.5,0.16));
#691=LINE('',#272,#34);
#692=ORIENTED_EDGE('',*,*,#693,.F.);
#693=EDGE_CURVE('',#694,#689,#696,.T.);
#694=VERTEX_POINT('',#695);
#695=CARTESIAN_POINT('',(-0.87,-1.5,0.16));
#696=LINE('',#695,#654);
#697=ORIENTED_EDGE('',*,*,#698,.F.);
#698=EDGE_CURVE('',#250,#694,#699,.T.);
#699=LINE('',#251,#34);
#700=PLANE('',#701);
#701=AXIS2_PLACEMENT_3D('',#32,#28,#13);
#702=ADVANCED_FACE('',(#703),#760,.T.);
#703=FACE_BOUND('',#704,.T.);
#704=EDGE_LOOP('',(#705,#640,#343,#706,#711,#717,#371,#720,#725,#730,#392,#733,#738,#743,#413,#746,#751,#756,#434,#759));
#705=ORIENTED_EDGE('',*,*,#134,.F.);
#706=ORIENTED_EDGE('',*,*,#707,.T.);
#707=EDGE_CURVE('',#345,#708,#710,.T.);
#708=VERTEX_POINT('',#709);
#709=CARTESIAN_POINT('',(1.5,-0.87,0.16));
#710=LINE('',#346,#34);
#711=ORIENTED_EDGE('',*,*,#712,.T.);
#712=EDGE_CURVE('',#708,#713,#715,.T.);
#713=VERTEX_POINT('',#714);
#714=CARTESIAN_POINT('',(1.5,-0.63,0.16));
#715=LINE('',#709,#716);
#716=VECTOR('',#363,1.);
#717=ORIENTED_EDGE('',*,*,#718,.F.);
#718=EDGE_CURVE('',#366,#713,#719,.T.);
#719=LINE('',#367,#34);
#720=ORIENTED_EDGE('',*,*,#721,.T.);
#721=EDGE_CURVE('',#373,#722,#724,.T.);
#722=VERTEX_POINT('',#723);
#723=CARTESIAN_POINT('',(1.5,-0.37,0.16));
#724=LINE('',#374,#34);
#725=ORIENTED_EDGE('',*,*,#726,.T.);
#726=EDGE_CURVE('',#722,#727,#729,.T.);
#727=VERTEX_POINT('',#728);
#728=CARTESIAN_POINT('',(1.5,-0.13,0.16));
#729=LINE('',#723,#716);
#730=ORIENTED_EDGE('',*,*,#731,.F.);
#731=EDGE_CURVE('',#389,#727,#732,.T.);
#732=LINE('',#390,#34);
#733=ORIENTED_EDGE('',*,*,#734,.T.);
#734=EDGE_CURVE('',#394,#735,#737,.T.);
#735=VERTEX_POINT('',#736);
#736=CARTESIAN_POINT('',(1.5,0.13,0.16));
#737=LINE('',#395,#34);
#738=ORIENTED_EDGE('',*,*,#739,.T.);
#739=EDGE_CURVE('',#735,#740,#742,.T.);
#740=VERTEX_POINT('',#741);
#741=CARTESIAN_POINT('',(1.5,0.37,0.16));
#742=LINE('',#736,#716);
#743=ORIENTED_EDGE('',*,*,#744,.F.);
#744=EDGE_CURVE('',#410,#740,#745,.T.);
#745=LINE('',#411,#34);
#746=ORIENTED_EDGE('',*,*,#747,.T.);
#747=EDGE_CURVE('',#415,#748,#750,.T.);
#748=VERTEX_POINT('',#749);
#749=CARTESIAN_POINT('',(1.5,0.63,0.16));
#750=LINE('',#416,#34);
#751=ORIENTED_EDGE('',*,*,#752,.T.);
#752=EDGE_CURVE('',#748,#753,#755,.T.);
#753=VERTEX_POINT('',#754);
#754=CARTESIAN_POINT('',(1.5,0.87,0.16));
#755=LINE('',#749,#716);
#756=ORIENTED_EDGE('',*,*,#757,.F.);
#757=EDGE_CURVE('',#431,#753,#758,.T.);
#758=LINE('',#432,#34);
#759=ORIENTED_EDGE('',*,*,#162,.T.);
#760=PLANE('',#761);
#761=AXIS2_PLACEMENT_3D('',#342,#123,#13);
#762=ADVANCED_FACE('',(#763),#766,.T.);
#763=FACE_BOUND('',#764,.T.);
#764=EDGE_LOOP('',(#765));
#765=ORIENTED_EDGE('',*,*,#144,.T.);
#766=PLANE('',#767);
#767=AXIS2_PLACEMENT_3D('',#149,#13,#14);
#768=ADVANCED_FACE('',(#769),#774,.F.);
#769=FACE_BOUND('',#770,.F.);
#770=EDGE_LOOP('',(#229,#234,#239,#771));
#771=ORIENTED_EDGE('',*,*,#772,.F.);
#772=EDGE_CURVE('',#227,#157,#773,.T.);
#773=LINE('',#228,#180);
#774=PLANE('',#775);
#775=AXIS2_PLACEMENT_3D('',#228,#453,#181);
#776=ADVANCED_FACE('',(#777),#782,.F.);
#777=FACE_BOUND('',#778,.F.);
#778=EDGE_LOOP('',(#210,#215,#220,#779));
#779=ORIENTED_EDGE('',*,*,#780,.F.);
#780=EDGE_CURVE('',#208,#222,#781,.T.);
#781=LINE('',#209,#180);
#782=PLANE('',#783);
#783=AXIS2_PLACEMENT_3D('',#209,#453,#181);
#784=ADVANCED_FACE('',(#785),#790,.F.);
#785=FACE_BOUND('',#786,.F.);
#786=EDGE_LOOP('',(#191,#196,#201,#787));
#787=ORIENTED_EDGE('',*,*,#788,.F.);
#788=EDGE_CURVE('',#189,#203,#789,.T.);
#789=LINE('',#190,#180);
#790=PLANE('',#791);
#791=AXIS2_PLACEMENT_3D('',#190,#453,#181);
#792=ADVANCED_FACE('',(#793),#798,.F.);
#793=FACE_BOUND('',#794,.F.);
#794=EDGE_LOOP('',(#170,#175,#182,#795));
#795=ORIENTED_EDGE('',*,*,#796,.F.);
#796=EDGE_CURVE('',#168,#184,#797,.T.);
#797=LINE('',#169,#180);
#798=PLANE('',#799);
#799=AXIS2_PLACEMENT_3D('',#169,#453,#181);
#800=ADVANCED_FACE('',(#801),#807,.F.);
#801=FACE_BOUND('',#802,.F.);
#802=EDGE_LOOP('',(#803,#804,#805,#806));
#803=ORIENTED_EDGE('',*,*,#558,.T.);
#804=ORIENTED_EDGE('',*,*,#553,.T.);
#805=ORIENTED_EDGE('',*,*,#631,.T.);
#806=ORIENTED_EDGE('',*,*,#565,.T.);
#807=PLANE('',#808);
#808=AXIS2_PLACEMENT_3D('',#809,#13,#810);
#809=CARTESIAN_POINT('',(-1.324015921009,-0.75,0.));
#810=DIRECTION('',(1.110223024625E-16,1.,0.));
#811=ADVANCED_FACE('',(#812),#820,.F.);
#812=FACE_BOUND('',#813,.F.);
#813=EDGE_LOOP('',(#814,#815,#816,#819));
#814=ORIENTED_EDGE('',*,*,#261,.T.);
#815=ORIENTED_EDGE('',*,*,#254,.T.);
#816=ORIENTED_EDGE('',*,*,#817,.T.);
#817=EDGE_CURVE('',#250,#271,#818,.T.);
#818=LINE('',#251,#654);
#819=ORIENTED_EDGE('',*,*,#270,.T.);
#820=PLANE('',#821);
#821=AXIS2_PLACEMENT_3D('',#822,#13,#823);
#822=CARTESIAN_POINT('',(-0.75,-1.324015921009,0.));
#823=DIRECTION('',(-1.,1.224646799147E-16,0.));
#824=ADVANCED_FACE('',(#825),#831,.F.);
#825=FACE_BOUND('',#826,.F.);
#826=EDGE_LOOP('',(#827,#828,#829,#830));
#827=ORIENTED_EDGE('',*,*,#542,.T.);
#828=ORIENTED_EDGE('',*,*,#537,.T.);
#829=ORIENTED_EDGE('',*,*,#620,.T.);
#830=ORIENTED_EDGE('',*,*,#549,.T.);
#831=PLANE('',#832);
#832=AXIS2_PLACEMENT_3D('',#833,#13,#810);
#833=CARTESIAN_POINT('',(-1.324015921009,-0.25,0.));
#834=ADVANCED_FACE('',(#835),#843,.F.);
#835=FACE_BOUND('',#836,.F.);
#836=EDGE_LOOP('',(#837,#838,#839,#842));
#837=ORIENTED_EDGE('',*,*,#286,.T.);
#838=ORIENTED_EDGE('',*,*,#281,.T.);
#839=ORIENTED_EDGE('',*,*,#840,.T.);
#840=EDGE_CURVE('',#278,#294,#841,.T.);
#841=LINE('',#279,#654);
#842=ORIENTED_EDGE('',*,*,#293,.T.);
#843=PLANE('',#844);
#844=AXIS2_PLACEMENT_3D('',#845,#13,#823);
#845=CARTESIAN_POINT('',(-0.25,-1.324015921009,0.));
#846=ADVANCED_FACE('',(#847),#853,.F.);
#847=FACE_BOUND('',#848,.F.);
#848=EDGE_LOOP('',(#849,#850,#851,#852));
#849=ORIENTED_EDGE('',*,*,#526,.T.);
#850=ORIENTED_EDGE('',*,*,#521,.T.);
#851=ORIENTED_EDGE('',*,*,#609,.T.);
#852=ORIENTED_EDGE('',*,*,#533,.T.);
#853=PLANE('',#854);
#854=AXIS2_PLACEMENT_3D('',#855,#13,#810);
#855=CARTESIAN_POINT('',(-1.324015921009,0.25,0.));
#856=ADVANCED_FACE('',(#857),#865,.F.);
#857=FACE_BOUND('',#858,.F.);
#858=EDGE_LOOP('',(#859,#860,#861,#864));
#859=ORIENTED_EDGE('',*,*,#307,.T.);
#860=ORIENTED_EDGE('',*,*,#302,.T.);
#861=ORIENTED_EDGE('',*,*,#862,.T.);
#862=EDGE_CURVE('',#299,#315,#863,.T.);
#863=LINE('',#300,#654);
#864=ORIENTED_EDGE('',*,*,#314,.T.);
#865=PLANE('',#866);
#866=AXIS2_PLACEMENT_3D('',#867,#13,#823);
#867=CARTESIAN_POINT('',(0.25,-1.324015921009,0.));
#868=ADVANCED_FACE('',(#869),#875,.F.);
#869=FACE_BOUND('',#870,.F.);
#870=EDGE_LOOP('',(#871,#872,#873,#874));
#871=ORIENTED_EDGE('',*,*,#508,.T.);
#872=ORIENTED_EDGE('',*,*,#501,.T.);
#873=ORIENTED_EDGE('',*,*,#598,.T.);
#874=ORIENTED_EDGE('',*,*,#515,.T.);
#875=PLANE('',#876);
#876=AXIS2_PLACEMENT_3D('',#877,#13,#810);
#877=CARTESIAN_POINT('',(-1.324015921009,0.75,0.));
#878=ADVANCED_FACE('',(#879),#887,.F.);
#879=FACE_BOUND('',#880,.F.);
#880=EDGE_LOOP('',(#881,#882,#883,#886));
#881=ORIENTED_EDGE('',*,*,#328,.T.);
#882=ORIENTED_EDGE('',*,*,#323,.T.);
#883=ORIENTED_EDGE('',*,*,#884,.T.);
#884=EDGE_CURVE('',#320,#336,#885,.T.);
#885=LINE('',#321,#654);
#886=ORIENTED_EDGE('',*,*,#335,.T.);
#887=PLANE('',#888);
#888=AXIS2_PLACEMENT_3D('',#889,#13,#823);
#889=CARTESIAN_POINT('',(0.75,-1.324015921009,0.));
#890=ADVANCED_FACE('',(#891),#897,.F.);
#891=FACE_BOUND('',#892,.F.);
#892=EDGE_LOOP('',(#893,#894,#895,#896));
#893=ORIENTED_EDGE('',*,*,#490,.T.);
#894=ORIENTED_EDGE('',*,*,#485,.T.);
#895=ORIENTED_EDGE('',*,*,#772,.T.);
#896=ORIENTED_EDGE('',*,*,#497,.T.);
#897=PLANE('',#898);
#898=AXIS2_PLACEMENT_3D('',#899,#13,#14);
#899=CARTESIAN_POINT('',(-0.75,1.324015921009,0.));
#900=ADVANCED_FACE('',(#901),#909,.F.);
#901=FACE_BOUND('',#902,.F.);
#902=EDGE_LOOP('',(#903,#904,#905,#908));
#903=ORIENTED_EDGE('',*,*,#356,.T.);
#904=ORIENTED_EDGE('',*,*,#349,.T.);
#905=ORIENTED_EDGE('',*,*,#906,.T.);
#906=EDGE_CURVE('',#345,#366,#907,.T.);
#907=LINE('',#346,#716);
#908=ORIENTED_EDGE('',*,*,#365,.T.);
#909=PLANE('',#910);
#910=AXIS2_PLACEMENT_3D('',#911,#13,#912);
#911=CARTESIAN_POINT('',(1.324015921009,-0.75,0.));
#912=DIRECTION('',(-2.22044604925E-16,-1.,0.));
#913=ADVANCED_FACE('',(#914),#920,.F.);
#914=FACE_BOUND('',#915,.F.);
#915=EDGE_LOOP('',(#916,#917,#918,#919));
#916=ORIENTED_EDGE('',*,*,#475,.T.);
#917=ORIENTED_EDGE('',*,*,#470,.T.);
#918=ORIENTED_EDGE('',*,*,#780,.T.);
#919=ORIENTED_EDGE('',*,*,#482,.T.);
#920=PLANE('',#921);
#921=AXIS2_PLACEMENT_3D('',#922,#13,#14);
#922=CARTESIAN_POINT('',(-0.25,1.324015921009,0.));
#923=ADVANCED_FACE('',(#924),#932,.F.);
#924=FACE_BOUND('',#925,.F.);
#925=EDGE_LOOP('',(#926,#927,#928,#931));
#926=ORIENTED_EDGE('',*,*,#381,.T.);
#927=ORIENTED_EDGE('',*,*,#376,.T.);
#928=ORIENTED_EDGE('',*,*,#929,.T.);
#929=EDGE_CURVE('',#373,#389,#930,.T.);
#930=LINE('',#374,#716);
#931=ORIENTED_EDGE('',*,*,#388,.T.);
#932=PLANE('',#933);
#933=AXIS2_PLACEMENT_3D('',#934,#13,#912);
#934=CARTESIAN_POINT('',(1.324015921009,-0.25,0.));
#935=ADVANCED_FACE('',(#936),#942,.F.);
#936=FACE_BOUND('',#937,.F.);
#937=EDGE_LOOP('',(#938,#939,#940,#941));
#938=ORIENTED_EDGE('',*,*,#460,.T.);
#939=ORIENTED_EDGE('',*,*,#455,.T.);
#940=ORIENTED_EDGE('',*,*,#788,.T.);
#941=ORIENTED_EDGE('',*,*,#467,.T.);
#942=PLANE('',#943);
#943=AXIS2_PLACEMENT_3D('',#944,#13,#14);
#944=CARTESIAN_POINT('',(0.25,1.324015921009,0.));
#945=ADVANCED_FACE('',(#946),#954,.F.);
#946=FACE_BOUND('',#947,.F.);
#947=EDGE_LOOP('',(#948,#949,#950,#953));
#948=ORIENTED_EDGE('',*,*,#402,.T.);
#949=ORIENTED_EDGE('',*,*,#397,.T.);
#950=ORIENTED_EDGE('',*,*,#951,.T.);
#951=EDGE_CURVE('',#394,#410,#952,.T.);
#952=LINE('',#395,#716);
#953=ORIENTED_EDGE('',*,*,#409,.T.);
#954=PLANE('',#955);
#955=AXIS2_PLACEMENT_3D('',#956,#13,#912);
#956=CARTESIAN_POINT('',(1.324015921009,0.25,0.));
#957=ADVANCED_FACE('',(#958),#964,.F.);
#958=FACE_BOUND('',#959,.F.);
#959=EDGE_LOOP('',(#960,#961,#962,#963));
#960=ORIENTED_EDGE('',*,*,#442,.T.);
#961=ORIENTED_EDGE('',*,*,#437,.T.);
#962=ORIENTED_EDGE('',*,*,#796,.T.);
#963=ORIENTED_EDGE('',*,*,#450,.T.);
#964=PLANE('',#965);
#965=AXIS2_PLACEMENT_3D('',#966,#13,#14);
#966=CARTESIAN_POINT('',(0.75,1.324015921009,0.));
#967=ADVANCED_FACE('',(#968),#976,.F.);
#968=FACE_BOUND('',#969,.F.);
#969=EDGE_LOOP('',(#970,#971,#972,#975));
#970=ORIENTED_EDGE('',*,*,#423,.T.);
#971=ORIENTED_EDGE('',*,*,#418,.T.);
#972=ORIENTED_EDGE('',*,*,#973,.T.);
#973=EDGE_CURVE('',#415,#431,#974,.T.);
#974=LINE('',#416,#716);
#975=ORIENTED_EDGE('',*,*,#430,.T.);
#976=PLANE('',#977);
#977=AXIS2_PLACEMENT_3D('',#978,#13,#912);
#978=CARTESIAN_POINT('',(1.324015921009,0.75,0.));
#979=ADVANCED_FACE('',(#980),#986,.F.);
#980=FACE_BOUND('',#981,.F.);
#981=EDGE_LOOP('',(#982,#983,#984,#985));
#982=ORIENTED_EDGE('',*,*,#570,.T.);
#983=ORIENTED_EDGE('',*,*,#587,.T.);
#984=ORIENTED_EDGE('',*,*,#582,.T.);
#985=ORIENTED_EDGE('',*,*,#577,.T.);
#986=PLANE('',#987);
#987=AXIS2_PLACEMENT_3D('',#988,#13,#123);
#988=CARTESIAN_POINT('',(-3.304235192337E-17,3.304235192337E-17,0.));
#989=ADVANCED_FACE('',(#990),#996,.F.);
#990=FACE_BOUND('',#991,.F.);
#991=EDGE_LOOP('',(#992,#993,#994,#995));
#992=ORIENTED_EDGE('',*,*,#698,.T.);
#993=ORIENTED_EDGE('',*,*,#693,.T.);
#994=ORIENTED_EDGE('',*,*,#688,.F.);
#995=ORIENTED_EDGE('',*,*,#817,.F.);
#996=PLANE('',#997);
#997=AXIS2_PLACEMENT_3D('',#251,#275,#268);
#998=ADVANCED_FACE('',(#999),#1005,.F.);
#999=FACE_BOUND('',#1000,.F.);
#1000=EDGE_LOOP('',(#1001,#1002,#1003,#1004));
#1001=ORIENTED_EDGE('',*,*,#684,.T.);
#1002=ORIENTED_EDGE('',*,*,#679,.T.);
#1003=ORIENTED_EDGE('',*,*,#674,.F.);
#1004=ORIENTED_EDGE('',*,*,#840,.F.);
#1005=PLANE('',#1006);
#1006=AXIS2_PLACEMENT_3D('',#279,#275,#268);
#1007=ADVANCED_FACE('',(#1008),#1014,.F.);
#1008=FACE_BOUND('',#1009,.F.);
#1009=EDGE_LOOP('',(#1010,#1011,#1012,#1013));
#1010=ORIENTED_EDGE('',*,*,#670,.T.);
#1011=ORIENTED_EDGE('',*,*,#665,.T.);
#1012=ORIENTED_EDGE('',*,*,#660,.F.);
#1013=ORIENTED_EDGE('',*,*,#862,.F.);
#1014=PLANE('',#1015);
#1015=AXIS2_PLACEMENT_3D('',#300,#275,#268);
#1016=ADVANCED_FACE('',(#1017),#1023,.F.);
#1017=FACE_BOUND('',#1018,.F.);
#1018=EDGE_LOOP('',(#1019,#1020,#1021,#1022));
#1019=ORIENTED_EDGE('',*,*,#656,.T.);
#1020=ORIENTED_EDGE('',*,*,#650,.T.);
#1021=ORIENTED_EDGE('',*,*,#645,.F.);
#1022=ORIENTED_EDGE('',*,*,#884,.F.);
#1023=PLANE('',#1024);
#1024=AXIS2_PLACEMENT_3D('',#321,#275,#268);
#1025=ADVANCED_FACE('',(#1026),#1029,.F.);
#1026=FACE_BOUND('',#1027,.F.);
#1027=EDGE_LOOP('',(#746,#751,#756,#1028));
#1028=ORIENTED_EDGE('',*,*,#973,.F.);
#1029=PLANE('',#1030);
#1030=AXIS2_PLACEMENT_3D('',#416,#370,#363);
#1031=ADVANCED_FACE('',(#1032),#1035,.F.);
#1032=FACE_BOUND('',#1033,.F.);
#1033=EDGE_LOOP('',(#733,#738,#743,#1034));
#1034=ORIENTED_EDGE('',*,*,#951,.F.);
#1035=PLANE('',#1036);
#1036=AXIS2_PLACEMENT_3D('',#395,#370,#363);
#1037=ADVANCED_FACE('',(#1038),#1041,.F.);
#1038=FACE_BOUND('',#1039,.F.);
#1039=EDGE_LOOP('',(#720,#725,#730,#1040));
#1040=ORIENTED_EDGE('',*,*,#929,.F.);
#1041=PLANE('',#1042);
#1042=AXIS2_PLACEMENT_3D('',#374,#370,#363);
#1043=ADVANCED_FACE('',(#1044),#1047,.F.);
#1044=FACE_BOUND('',#1045,.F.);
#1045=EDGE_LOOP('',(#706,#711,#717,#1046));
#1046=ORIENTED_EDGE('',*,*,#906,.F.);
#1047=PLANE('',#1048);
#1048=AXIS2_PLACEMENT_3D('',#346,#370,#363);
#1049=( GEOMETRIC_REPRESENTATION_CONTEXT(3) GLOBAL_UNCERTAINTY_ASSIGNED_CONTEXT((#1053)) GLOBAL_UNIT_ASSIGNED_CONTEXT((#1050,#1051,#1052)) REPRESENTATION_CONTEXT('Context #1','3D Context with UNIT and UNCERTAINTY') );
#1050=( LENGTH_UNIT() NAMED_UNIT(*) SI_UNIT(.MILLI.,.METRE.) );
#1051=( NAMED_UNIT(*) PLANE_ANGLE_UNIT() SI_UNIT($,.RADIAN.) );
#1052=( NAMED_UNIT(*) SI_UNIT($,.STERADIAN.) SOLID_ANGLE_UNIT() );
#1053=UNCERTAINTY_MEASURE_WITH_UNIT(LENGTH_MEASURE(1.E-07),#1050,'distance_accuracy_value','confusion accuracy');
#1054=PRODUCT_RELATED_PRODUCT_CATEGORY('part',$,(#7));
#1055=MECHANICAL_DESIGN_GEOMETRIC_PRESENTATION_REPRESENTATION('',(#1056,#1066,#1067,#1068,#1069,#1078,#1079,#1080,#1081,#1082,#1083,#1092,#1093,#1094,#1095,#1096,#1097,#1098,#1099,#1100,#1101,#1102,#1103,#1104,#1105,#1106,#1107,#1108,#1109,#1110,#1111,#1112,#1113,#1114,#1115,#1116,#1117,#1118,#1119,#1120),#1049);
#1056=STYLED_ITEM('color',(#1057),#17);
#1057=PRESENTATION_STYLE_ASSIGNMENT((#1058,#1064));
#1058=SURFACE_STYLE_USAGE(.BOTH.,#1059);
#1059=SURFACE_SIDE_STYLE('',(#1060));
#1060=SURFACE_STYLE_FILL_AREA(#1061);
#1061=FILL_AREA_STYLE('',(#1062));
#1062=FILL_AREA_STYLE_COLOUR('',#1063);
#1063=COLOUR_RGB('',0.147999998088,0.145000001626,0.145000001626);
#1064=CURVE_STYLE('',#1065,POSITIVE_LENGTH_MEASURE(0.1),#1063);
#1065=DRAUGHTING_PRE_DEFINED_CURVE_FONT('continuous');
#1066=STYLED_ITEM('color',(#1057),#124);
#1067=STYLED_ITEM('color',(#1057),#152);
#1068=STYLED_ITEM('color',(#1057),#244);
#1069=STYLED_ITEM('color',(#1070),#591);
#1070=PRESENTATION_STYLE_ASSIGNMENT((#1071,#1077));
#1071=SURFACE_STYLE_USAGE(.BOTH.,#1072);
#1072=SURFACE_SIDE_STYLE('',(#1073));
#1073=SURFACE_STYLE_FILL_AREA(#1074);
#1074=FILL_AREA_STYLE('',(#1075));
#1075=FILL_AREA_STYLE_COLOUR('',#1076);
#1076=COLOUR_RGB('',0.823999987314,0.819999987296,0.781000009244);
#1077=CURVE_STYLE('',#1065,POSITIVE_LENGTH_MEASURE(0.1),#1076);
#1078=STYLED_ITEM('color',(#1070),#602);
#1079=STYLED_ITEM('color',(#1070),#613);
#1080=STYLED_ITEM('color',(#1070),#624);
#1081=STYLED_ITEM('color',(#1057),#635);
#1082=STYLED_ITEM('color',(#1057),#702);
#1083=STYLED_ITEM('color',(#1084),#762);
#1084=PRESENTATION_STYLE_ASSIGNMENT((#1085,#1091));
#1085=SURFACE_STYLE_USAGE(.BOTH.,#1086);
#1086=SURFACE_SIDE_STYLE('',(#1087));
#1087=SURFACE_STYLE_FILL_AREA(#1088);
#1088=FILL_AREA_STYLE('',(#1089));
#1089=FILL_AREA_STYLE_COLOUR('',#1090);
#1090=COLOUR_RGB('',0.690999998585,0.664000007176,0.597999987832);
#1091=CURVE_STYLE('',#1065,POSITIVE_LENGTH_MEASURE(0.1),#1090);
#1092=STYLED_ITEM('color',(#1070),#768);
#1093=STYLED_ITEM('color',(#1070),#776);
#1094=STYLED_ITEM('color',(#1070),#784);
#1095=STYLED_ITEM('color',(#1070),#792);
#1096=STYLED_ITEM('color',(#1070),#800);
#1097=STYLED_ITEM('color',(#1070),#811);
#1098=STYLED_ITEM('color',(#1070),#824);
#1099=STYLED_ITEM('color',(#1070),#834);
#1100=STYLED_ITEM('color',(#1070),#846);
#1101=STYLED_ITEM('color',(#1070),#856);
#1102=STYLED_ITEM('color',(#1070),#868);
#1103=STYLED_ITEM('color',(#1070),#878);
#1104=STYLED_ITEM('color',(#1070),#890);
#1105=STYLED_ITEM('color',(#1070),#900);
#1106=STYLED_ITEM('color',(#1070),#913);
#1107=STYLED_ITEM('color',(#1070),#923);
#1108=STYLED_ITEM('color',(#1070),#935);
#1109=STYLED_ITEM('color',(#1070),#945);
#1110=STYLED_ITEM('color',(#1070),#957);
#1111=STYLED_ITEM('color',(#1070),#967);
#1112=STYLED_ITEM('color',(#1070),#979);
#1113=STYLED_ITEM('color',(#1070),#989);
#1114=STYLED_ITEM('color',(#1070),#998);
#1115=STYLED_ITEM('color',(#1070),#1007);
#1116=STYLED_ITEM('color',(#1070),#1016);
#1117=STYLED_ITEM('color',(#1070),#1025);
#1118=STYLED_ITEM('color',(#1070),#1031);
#1119=STYLED_ITEM('color',(#1070),#1037);
#1120=STYLED_ITEM('color',(#1070),#1043);
ENDSEC;
END-ISO-10303-21;
